<mxfile host="65bd71144e">
    <diagram id="evYGxtCOfcgP6jMjrsDt" name="Page-1">
        <mxGraphModel dx="2316" dy="1050" grid="1" gridSize="10" guides="1" tooltips="1" connect="1" arrows="1" fold="1" page="1" pageScale="1" pageWidth="850" pageHeight="1100" math="0" shadow="0">
            <root>
                <mxCell id="0"/>
                <mxCell id="1" parent="0"/>
                <mxCell id="8" style="edgeStyle=none;html=1;exitX=0.5;exitY=1;exitDx=0;exitDy=0;fontSize=30;entryX=0.5;entryY=0;entryDx=0;entryDy=0;" parent="1" source="3" target="9" edge="1">
                    <mxGeometry relative="1" as="geometry">
                        <mxPoint x="426" y="375" as="targetPoint"/>
                    </mxGeometry>
                </mxCell>
                <mxCell id="19" style="edgeStyle=orthogonalEdgeStyle;html=1;dashed=1;dashPattern=8 8;fontSize=19;" parent="1" source="3" edge="1">
                    <mxGeometry relative="1" as="geometry">
                        <mxPoint x="260" y="280" as="targetPoint"/>
                    </mxGeometry>
                </mxCell>
                <mxCell id="3" value="Python script retrives data from Mercado Livre &lt;br&gt;(via API)" style="rounded=0;whiteSpace=wrap;html=1;fontSize=19;strokeWidth=3;" parent="1" vertex="1">
                    <mxGeometry x="308" y="235" width="235" height="90" as="geometry"/>
                </mxCell>
                <mxCell id="6" value="data retrieved with requests lib." style="text;html=1;strokeColor=none;fillColor=none;align=right;verticalAlign=middle;whiteSpace=wrap;rounded=0;fontSize=19;" parent="1" vertex="1">
                    <mxGeometry x="100" y="265" width="160" height="30" as="geometry"/>
                </mxCell>
                <mxCell id="7" value="&lt;h1 style=&quot;font-size: 30px;&quot;&gt;&lt;span style=&quot;font-size: 30px; font-weight: 400;&quot;&gt;Mercado Livre ETL&lt;/span&gt;&lt;br style=&quot;font-size: 30px;&quot;&gt;&lt;/h1&gt;&lt;div&gt;Monitors&lt;/div&gt;" style="text;html=1;strokeColor=none;fillColor=none;spacing=5;spacingTop=-20;whiteSpace=wrap;overflow=hidden;rounded=0;fontSize=30;align=center;" parent="1" vertex="1">
                    <mxGeometry x="250" y="50" width="380" height="110" as="geometry"/>
                </mxCell>
                <mxCell id="11" style="edgeStyle=orthogonalEdgeStyle;html=1;fontSize=19;entryX=0.5;entryY=0;entryDx=0;entryDy=0;" parent="1" source="9" target="12" edge="1">
                    <mxGeometry relative="1" as="geometry">
                        <mxPoint x="430" y="505" as="targetPoint"/>
                    </mxGeometry>
                </mxCell>
                <mxCell id="9" value="Filters, clean and transforms data in order to store better data" style="rounded=0;whiteSpace=wrap;html=1;fontSize=19;dashed=1;" parent="1" vertex="1">
                    <mxGeometry x="305" y="375" width="240" height="80" as="geometry"/>
                </mxCell>
                <mxCell id="15" style="edgeStyle=orthogonalEdgeStyle;html=1;exitX=1;exitY=0.5;exitDx=0;exitDy=0;entryX=0;entryY=0.5;entryDx=0;entryDy=0;fontSize=19;" parent="1" source="12" target="14" edge="1">
                    <mxGeometry relative="1" as="geometry"/>
                </mxCell>
                <mxCell id="21" style="edgeStyle=orthogonalEdgeStyle;html=1;dashed=1;dashPattern=8 8;fontSize=19;entryX=1;entryY=0.5;entryDx=0;entryDy=0;" parent="1" source="12" target="22" edge="1">
                    <mxGeometry relative="1" as="geometry">
                        <mxPoint x="140" y="550" as="targetPoint"/>
                    </mxGeometry>
                </mxCell>
                <mxCell id="12" value="Stores dara into local DB (SQLite)" style="rounded=0;whiteSpace=wrap;html=1;fontSize=19;strokeWidth=3;" parent="1" vertex="1">
                    <mxGeometry x="178" y="505" width="235" height="90" as="geometry"/>
                </mxCell>
                <mxCell id="18" style="edgeStyle=orthogonalEdgeStyle;html=1;entryX=0.5;entryY=0;entryDx=0;entryDy=0;fontSize=19;" parent="1" source="14" target="17" edge="1">
                    <mxGeometry relative="1" as="geometry"/>
                </mxCell>
                <mxCell id="14" value="From local DB, stores dara into cloud Postgres DB (render)" style="rounded=0;whiteSpace=wrap;html=1;fontSize=19;strokeWidth=3;" parent="1" vertex="1">
                    <mxGeometry x="438" y="505" width="235" height="90" as="geometry"/>
                </mxCell>
                <mxCell id="17" value="These steps are set to repeat every 12 hours, i.e. each 12h the db is updated with new data" style="rounded=0;whiteSpace=wrap;html=1;fontSize=19;dashed=1;" parent="1" vertex="1">
                    <mxGeometry x="305.5" y="645" width="240" height="100" as="geometry"/>
                </mxCell>
                <mxCell id="20" value="" style="shape=curlyBracket;whiteSpace=wrap;html=1;rounded=1;flipH=1;labelPosition=right;verticalLabelPosition=middle;align=left;verticalAlign=middle;strokeWidth=3;fontSize=19;" parent="1" vertex="1">
                    <mxGeometry x="710" y="220" width="50" height="525" as="geometry"/>
                </mxCell>
                <mxCell id="22" value="This step is necessary since render free Postgres DB has a limited time of 1 month. So this step makes to update a eventually new DB starting by the same point where the last one stoped" style="text;html=1;strokeColor=none;fillColor=none;align=right;verticalAlign=middle;whiteSpace=wrap;rounded=0;strokeWidth=3;fontSize=19;" parent="1" vertex="1">
                    <mxGeometry x="-90" y="444" width="220" height="213" as="geometry"/>
                </mxCell>
                <mxCell id="23" value="Scrip with this pipeline is loaded into AWS EC2 instance, in order to keep this flow running" style="rounded=0;whiteSpace=wrap;html=1;fontSize=19;strokeWidth=3;" parent="1" vertex="1">
                    <mxGeometry x="780" y="430" width="235" height="90" as="geometry"/>
                </mxCell>
            </root>
        </mxGraphModel>
    </diagram>
</mxfile>